<svg width="34" height="34" viewBox="0 0 34 34" fill="none" xmlns="http://www.w3.org/2000/svg">
<mask id="mask0_3_132" style="mask-type:alpha" maskUnits="userSpaceOnUse" x="0" y="0" width="34" height="34">
<path d="M16.7966 15.2146L30.038 7.44614C29.6568 6.88213 29.1442 6.41926 28.5444 6.09739C27.9445 5.77552 27.2754 5.60431 26.5947 5.59851H6.99859C6.31437 5.59821 5.64045 5.76511 5.03546 6.08469C4.43046 6.40426 3.91272 6.86683 3.52728 7.43215L16.7966 15.2146Z" fill="black"/>
<path d="M18.1963 17.6222C17.771 17.8689 17.2883 17.9993 16.7966 18.0001C16.3062 18.0035 15.8235 17.878 15.3969 17.6362L2.79941 10.2597V23.795C2.79941 24.9087 3.24182 25.9767 4.02931 26.7642C4.81681 27.5517 5.88488 27.9941 6.99857 27.9941H26.5947C27.7084 27.9941 28.7764 27.5517 29.5639 26.7642C30.3514 25.9767 30.7938 24.9087 30.7938 23.795V10.2597L18.1963 17.6222Z" fill="black"/>
</mask>
<g mask="url(#mask0_3_132)">
<rect x="-3.47518" y="-2.3168" width="42.2812" height="37.0685" fill="#1C115D"/>
</g>
</svg>
