<svg width="32" height="33" viewBox="0 0 32 33" fill="none" xmlns="http://www.w3.org/2000/svg">
<path fill-rule="evenodd" clip-rule="evenodd" d="M0 16.5586C0 7.72204 7.16344 0.558594 16 0.558594C24.8366 0.558594 32 7.72204 32 16.5586C32 25.3951 24.8366 32.5586 16 32.5586C7.16344 32.5586 0 25.3951 0 16.5586ZM16 8.55859C20.4 8.55859 24 12.1586 24 16.5586C24 20.5586 21.1 23.9586 17.1 24.5586V18.8586H19L19.4 16.5586H17.2V15.0586C17.2 14.4586 17.5 13.8586 18.5 13.8586H19.5V11.8586C19.5 11.8586 18.6 11.6586 17.7 11.6586C15.9 11.6586 14.7 12.7586 14.7 14.7586V16.5586H12.7V18.8586H14.7V24.4586C10.9 23.8586 8 20.5586 8 16.5586C8 12.1586 11.6 8.55859 16 8.55859Z" fill="#1C115D"/>
</svg>
