<svg width="90" height="17" viewBox="0 0 90 17" fill="none" xmlns="http://www.w3.org/2000/svg">
<path d="M8.32261 0.0579834L10.1343 5.63378H15.997L11.254 9.07981L13.0657 14.6556L8.32261 11.2096L3.57955 14.6556L5.39123 9.07981L0.648178 5.63378H6.51092L8.32261 0.0579834Z" fill="#FDB800"/>
<path d="M26.4787 0.0579834L28.2904 5.63378H34.1532L29.4101 9.07981L31.2218 14.6556L26.4787 11.2096L21.7357 14.6556L23.5474 9.07981L18.8043 5.63378H24.667L26.4787 0.0579834Z" fill="#FDB800"/>
<path d="M44.6348 0.0579834L46.4465 5.63378H52.3092L47.5662 9.07981L49.3779 14.6556L44.6348 11.2096L39.8917 14.6556L41.7034 9.07981L36.9604 5.63378H42.8231L44.6348 0.0579834Z" fill="#FDB800"/>
<path d="M62.7909 0.0579834L64.6025 5.63378H70.4653L65.7222 9.07981L67.5339 14.6556L62.7909 11.2096L58.0478 14.6556L59.8595 9.07981L55.1164 5.63378H60.9792L62.7909 0.0579834Z" fill="#FDB800"/>
<path d="M80.947 0.0579834L82.7587 5.63378H88.6214L83.8784 9.07981L85.6901 14.6556L80.947 11.2096L76.2039 14.6556L78.0156 9.07981L73.2726 5.63378H79.1353L80.947 0.0579834Z" fill="#FDB800"/>
</svg>
