<svg width="32" height="33" viewBox="0 0 32 33" fill="none" xmlns="http://www.w3.org/2000/svg">
<path fill-rule="evenodd" clip-rule="evenodd" d="M0 16.5586C0 7.72204 7.16344 0.558594 16 0.558594C24.8366 0.558594 32 7.72204 32 16.5586C32 25.3951 24.8366 32.5586 16 32.5586C7.16344 32.5586 0 25.3951 0 16.5586ZM22.1 12.0586C22.8 11.9586 23.4 11.8586 24 11.5586C23.6 12.2586 23 12.8586 22.3 13.2586C22.5 17.9586 19.1 23.0586 13 23.0586C11.2 23.0586 9.5 22.4586 8 21.5586C9.7 21.7586 11.5 21.2586 12.7 20.3586C11.2 20.3586 10 19.3586 9.6 18.0586C10.1 18.1586 10.6 18.0586 11.1 17.9586C9.6 17.5586 8.5 16.1586 8.5 14.6586C9 14.8586 9.5 15.0586 10 15.0586C8.6 14.0586 8.1 12.1586 9 10.6586C10.7 12.6586 13.1 13.9586 15.8 14.0586C15.3 12.0586 16.9 10.0586 19 10.0586C19.9 10.0586 20.8 10.4586 21.4 11.0586C22.2 10.8586 22.9 10.6586 23.5 10.2586C23.3 11.0586 22.8 11.6586 22.1 12.0586Z" fill="#1C115D"/>
</svg>
