<svg width="65" height="62" viewBox="0 0 55 52" fill="none" xmlns="http://www.w3.org/2000/svg">
<path d="M50.5405 0H4.4832C2.37279 0 0.658081 1.66625 0.658081 3.71171V47.7695C0.658081 49.815 2.37279 51.4812 4.4832 51.4812H50.5405C52.6509 51.4812 54.3776 49.815 54.3776 47.7695V3.71171C54.3776 1.66625 52.6509 0 50.5405 0ZM16.8939 44.1268H8.93185V19.5583H16.9058V44.1268H16.8939ZM12.9129 16.2028C10.3588 16.2028 8.29633 14.2148 8.29633 11.7786C8.29633 9.34247 10.3588 7.35446 12.9129 7.35446C15.4549 7.35446 17.5294 9.34247 17.5294 11.7786C17.5294 14.2263 15.4669 16.2028 12.9129 16.2028V16.2028ZM46.7394 44.1268H38.7774V32.1758C38.7774 29.3259 38.7174 25.6602 34.6405 25.6602C30.4916 25.6602 29.8561 28.7628 29.8561 31.9689V44.1268H21.8941V19.5583H29.5323V22.9137H29.6403C30.7075 20.9832 33.3095 18.9492 37.1826 18.9492C45.2405 18.9492 46.7394 24.0399 46.7394 30.6589V44.1268V44.1268Z" fill="#1C115D"/>
</svg>
