<svg width="35" height="35" viewBox="0 0 35 35" fill="none" xmlns="http://www.w3.org/2000/svg">
<mask id="mask0_3_116" style="mask-type:alpha" maskUnits="userSpaceOnUse" x="0" y="0" width="35" height="35">
<path d="M31.8519 25.3142C30.9047 24.5199 25.3499 21.0023 24.4267 21.1638C23.9932 21.2407 23.6616 21.6102 22.7741 22.669C22.3636 23.1901 21.9129 23.6781 21.426 24.1287C20.5339 23.9132 19.6704 23.5931 18.8534 23.175C15.6494 21.6151 13.0609 19.0259 11.5019 15.8214C11.0839 15.0043 10.7638 14.1408 10.5483 13.2488C10.9988 12.7619 11.4869 12.3111 12.008 11.9007C13.0656 11.0132 13.4362 10.6837 13.5132 10.2481C13.6746 9.32267 10.1538 3.77002 9.36277 2.82291C9.03117 2.43063 8.72991 2.1673 8.34413 2.1673C7.2258 2.1673 2.1673 8.42216 2.1673 9.23273C2.1673 9.29883 2.27566 15.8105 10.4995 24.1774C18.8664 32.4013 25.3781 32.5096 25.4442 32.5096C26.2548 32.5096 32.5096 27.4511 32.5096 26.3328C32.5096 25.947 32.2463 25.6458 31.8519 25.3142V25.3142Z" fill="black"/>
<path d="M24.924 16.2548H27.0914C27.0888 13.9564 26.1746 11.7528 24.5493 10.1276C22.9241 8.50235 20.7206 7.58815 18.4221 7.58557V9.75288C20.146 9.7546 21.7988 10.4402 23.0178 11.6592C24.2368 12.8781 24.9223 14.5309 24.924 16.2548V16.2548Z" fill="black"/>
<path d="M30.3423 16.2548H32.5096C32.5053 12.5199 31.0197 8.93918 28.3787 6.29819C25.7378 3.6572 22.157 2.1716 18.4221 2.1673V4.33461C21.5824 4.33834 24.6122 5.59541 26.8469 7.83007C29.0815 10.0647 30.3386 13.0945 30.3423 16.2548Z" fill="black"/>
</mask>
<g mask="url(#mask0_3_116)">
<rect x="-3.25098" y="-2.1673" width="39.5534" height="34.677" fill="#1C115D"/>
</g>
</svg>
