<svg width="32" height="33" viewBox="0 0 32 33" fill="none" xmlns="http://www.w3.org/2000/svg">
<path d="M16 19.3586C14.5 19.3586 13.2 18.1586 13.2 16.5586C13.2 15.0586 14.4 13.7586 16 13.7586C17.5 13.7586 18.8 14.9586 18.8 16.5586C18.8 18.0586 17.5 19.3586 16 19.3586Z" fill="#1C115D"/>
<path fill-rule="evenodd" clip-rule="evenodd" d="M19.4 9.75859H12.6C11.8 9.85859 11.4 9.95859 11.1 10.0586C10.7 10.1586 10.4 10.3586 10.1 10.6586C9.86261 10.896 9.75045 11.1334 9.61489 11.4203C9.57916 11.4959 9.5417 11.5752 9.5 11.6586C9.48453 11.705 9.46667 11.7538 9.44752 11.8061C9.34291 12.0919 9.2 12.4824 9.2 13.1586V19.9586C9.3 20.7586 9.4 21.1586 9.5 21.4586C9.6 21.8586 9.8 22.1586 10.1 22.4586C10.3374 22.696 10.5748 22.8081 10.8617 22.9437C10.9374 22.9795 11.0165 23.0168 11.1 23.0586C11.1464 23.0741 11.1952 23.0919 11.2475 23.1111C11.5333 23.2157 11.9238 23.3586 12.6 23.3586H19.4C20.2 23.2586 20.6 23.1586 20.9 23.0586C21.3 22.9586 21.6 22.7586 21.9 22.4586C22.1374 22.2212 22.2495 21.9838 22.3851 21.6969C22.4209 21.6212 22.4583 21.5421 22.5 21.4586C22.5155 21.4122 22.5333 21.3634 22.5525 21.3111C22.6571 21.0253 22.8 20.6348 22.8 19.9586V13.1586C22.7 12.3586 22.6 11.9586 22.5 11.6586C22.4 11.2586 22.2 10.9586 21.9 10.6586C21.6626 10.4212 21.4252 10.309 21.1383 10.1735C21.0627 10.1378 20.9833 10.1003 20.9 10.0586C20.8536 10.0431 20.8048 10.0253 20.7525 10.0061C20.4667 9.9015 20.0762 9.75859 19.4 9.75859ZM16 12.2586C13.6 12.2586 11.7 14.1586 11.7 16.5586C11.7 18.9586 13.6 20.8586 16 20.8586C18.4 20.8586 20.3 18.9586 20.3 16.5586C20.3 14.1586 18.4 12.2586 16 12.2586ZM21.4 12.1586C21.4 12.7109 20.9523 13.1586 20.4 13.1586C19.8477 13.1586 19.4 12.7109 19.4 12.1586C19.4 11.6063 19.8477 11.1586 20.4 11.1586C20.9523 11.1586 21.4 11.6063 21.4 12.1586Z" fill="#1C115D"/>
<path fill-rule="evenodd" clip-rule="evenodd" d="M0 16.5586C0 7.72204 7.16344 0.558594 16 0.558594C24.8366 0.558594 32 7.72204 32 16.5586C32 25.3951 24.8366 32.5586 16 32.5586C7.16344 32.5586 0 25.3951 0 16.5586ZM12.6 8.25859H19.4C20.3 8.35859 20.9 8.45859 21.4 8.65859C22 8.95859 22.4 9.15859 22.9 9.65859C23.4 10.1586 23.7 10.6586 23.9 11.1586C24.1 11.6586 24.3 12.2586 24.3 13.1586V19.9586C24.2 20.8586 24.1 21.4586 23.9 21.9586C23.6 22.5586 23.4 22.9586 22.9 23.4586C22.4 23.9586 21.9 24.2586 21.4 24.4586C20.9 24.6586 20.3 24.8586 19.4 24.8586H12.6C11.7 24.7586 11.1 24.6586 10.6 24.4586C10 24.1586 9.6 23.9586 9.1 23.4586C8.6 22.9586 8.3 22.4586 8.1 21.9586C7.9 21.4586 7.7 20.8586 7.7 19.9586V13.1586C7.8 12.2586 7.9 11.6586 8.1 11.1586C8.4 10.5586 8.6 10.1586 9.1 9.65859C9.6 9.15859 10.1 8.85859 10.6 8.65859C11.1 8.45859 11.7 8.25859 12.6 8.25859Z" fill="#1C115D"/>
</svg>
