<svg width="32" height="33" viewBox="0 0 32 33" fill="none" xmlns="http://www.w3.org/2000/svg">
<path d="M50.5406 0H4.48332C2.37291 0 0.658203 1.66625 0.658203 3.71171V47.7695C0.658203 49.815 2.37291 51.4812 4.48332 51.4812H50.5406C52.6511 51.4812 54.3778 49.815 54.3778 47.7695V3.71171C54.3778 1.66625 52.6511 0 50.5406 0ZM16.894 44.1268H8.93197V19.5583H16.906V44.1268H16.894ZM12.913 16.2028C10.3589 16.2028 8.29645 14.2148 8.29645 11.7786C8.29645 9.34247 10.3589 7.35446 12.913 7.35446C15.4551 7.35446 17.5295 9.34247 17.5295 11.7786C17.5295 14.2263 15.4671 16.2028 12.913 16.2028ZM46.7395 44.1268H38.7775V32.1758C38.7775 29.3259 38.7175 25.6602 34.6406 25.6602C30.4917 25.6602 29.8562 28.7628 29.8562 31.9689V44.1268H21.8942V19.5583H29.5325V22.9137H29.6404C30.7076 20.9832 33.3096 18.9492 37.1827 18.9492C45.2406 18.9492 46.7395 24.0399 46.7395 30.6589V44.1268Z" fill="#1C115D"/>
</svg>
