<svg width="32" height="33" viewBox="0 0 32 33" fill="none" xmlns="http://www.w3.org/2000/svg">
<path d="M18.6 16.5586L14.4 14.1586V18.9586L18.6 16.5586Z" fill="#1C115D"/>
<path fill-rule="evenodd" clip-rule="evenodd" d="M0 16.5586C0 7.72204 7.16344 0.558594 16 0.558594C24.8366 0.558594 32 7.72204 32 16.5586C32 25.3951 24.8366 32.5586 16 32.5586C7.16344 32.5586 0 25.3951 0 16.5586ZM22.2 11.2586C22.9 11.4586 23.4 11.9586 23.6 12.6586C24 13.9586 24 16.5586 24 16.5586C24 16.5586 24 19.1586 23.7 20.4586C23.5 21.1586 23 21.6586 22.3 21.8586C21 22.1586 16 22.1586 16 22.1586C16 22.1586 10.9 22.1586 9.7 21.8586C9 21.6586 8.5 21.1586 8.3 20.4586C8 19.1586 8 16.5586 8 16.5586C8 16.5586 8 13.9586 8.2 12.6586C8.4 11.9586 8.90001 11.4586 9.60001 11.2586C10.9 10.9586 15.9 10.9586 15.9 10.9586C15.9 10.9586 21 10.9586 22.2 11.2586Z" fill="#1C115D"/>
</svg>
